<!-- Generated by IcoMoon.io -->
<svg version="1.1" xmlns="http://www.w3.org/2000/svg" width="59" height="32" viewBox="0 0 59 32">
<title>Client-4</title>
<path fill="#afb1b8" d="M19.529 12.905h-0.001c-0.834 0-1.51 0.601-1.51 1.342v0.001c0 0.741 0.676 1.342 1.51 1.342h0.001c0.834 0 1.51-0.601 1.51-1.342v-0.001c0-0.742-0.676-1.343-1.51-1.343zM30.677 12.477c-0.002-1.030-0.464-2.017-1.283-2.745s-1.929-1.138-3.088-1.141c-1.159 0.002-2.27 0.412-3.089 1.14s-1.281 1.715-1.283 2.745v5.678s8.742-0.865 8.743-5.677v-0.001zM14.957 20.017c0.002 0.717 0.323 1.403 0.893 1.91s1.342 0.792 2.148 0.794c0.806-0.002 1.578-0.288 2.148-0.794s0.891-1.193 0.893-1.909v-3.951s-6.083 0.603-6.083 3.95zM17.998 20.725c-0.158 0-0.311-0.041-0.442-0.119-0.127-0.075-0.228-0.183-0.291-0.313l-0.002-0.004c-0.038-0.079-0.060-0.172-0.060-0.27 0-0.049 0.006-0.097 0.016-0.143l-0.001 0.004c0.031-0.137 0.106-0.264 0.218-0.362s0.253-0.167 0.408-0.194c0.047-0.009 0.101-0.014 0.156-0.014 0.109 0 0.214 0.020 0.311 0.056l-0.006-0.002c0.145 0.054 0.27 0.144 0.357 0.261s0.134 0.253 0.134 0.393c0 0.093-0.020 0.186-0.060 0.272-0.043 0.090-0.101 0.167-0.172 0.23l-0.001 0.001c-0.074 0.066-0.162 0.118-0.259 0.154-0.091 0.034-0.195 0.054-0.305 0.054-0 0-0 0-0.001 0h0v-0.003zM24.145 20.335h-0.587v0.606h-0.306v-1.484h0.966v0.248h-0.661v0.383h0.587v0.247zM25.615 20.233c0 0.146-0.026 0.274-0.077 0.384s-0.126 0.195-0.223 0.255c-0.091 0.056-0.201 0.090-0.319 0.090-0.004 0-0.008-0-0.012-0h0.001c-0.123 0-0.233-0.030-0.329-0.089-0.097-0.061-0.174-0.147-0.222-0.249l-0.002-0.004c-0.051-0.107-0.080-0.233-0.080-0.366 0-0.005 0-0.009 0-0.014v0.001-0.073c0-0.146 0.026-0.275 0.078-0.385s0.127-0.197 0.223-0.256c0.096-0.060 0.206-0.090 0.33-0.090s0.233 0.030 0.329 0.090c0.096 0.059 0.171 0.144 0.223 0.256s0.079 0.239 0.079 0.384v0.066zM25.305 20.166c0-0.155-0.028-0.274-0.083-0.355-0.050-0.074-0.133-0.121-0.227-0.121-0.004 0-0.008 0-0.013 0l0.001-0c-0.003-0-0.008-0-0.012-0-0.094 0-0.176 0.047-0.225 0.12l-0.001 0.001c-0.056 0.080-0.084 0.196-0.085 0.351v0.072c0 0.151 0.028 0.269 0.083 0.352s0.136 0.125 0.241 0.125c0.004 0 0.008 0 0.012 0 0.093 0 0.175-0.047 0.224-0.119l0.001-0.001c0.055-0.081 0.083-0.198 0.083-0.353v-0.072zM26.606 20.552c0-0.003 0-0.006 0-0.009 0-0.050-0.024-0.095-0.061-0.123l-0-0c-0.041-0.031-0.114-0.064-0.22-0.098-0.098-0.030-0.181-0.065-0.26-0.106l0.009 0.004c-0.169-0.091-0.253-0.214-0.253-0.368 0-0.080 0.023-0.152 0.067-0.214 0.046-0.063 0.111-0.112 0.195-0.148s0.18-0.053 0.285-0.053c0.106 0 0.2 0.019 0.283 0.058s0.147 0.092 0.192 0.162c0.046 0.070 0.070 0.15 0.070 0.238h-0.306c0-0.068-0.021-0.121-0.064-0.158-0.043-0.038-0.103-0.057-0.18-0.057-0.075 0-0.133 0.016-0.174 0.048-0.038 0.027-0.062 0.071-0.062 0.121 0 0.001 0 0.002 0 0.004v-0c0 0.048 0.024 0.089 0.072 0.121s0.121 0.063 0.215 0.091c0.174 0.052 0.301 0.117 0.38 0.195s0.119 0.174 0.119 0.289c0 0.128-0.049 0.23-0.146 0.303s-0.227 0.109-0.392 0.109c-0.114 0-0.218-0.021-0.312-0.063-0.088-0.037-0.161-0.096-0.214-0.17l-0.001-0.002c-0.046-0.069-0.073-0.153-0.073-0.243 0-0.003 0-0.007 0-0.010v0h0.306c0 0.163 0.098 0.246 0.294 0.246 0.073 0 0.129-0.015 0.17-0.044 0.037-0.027 0.061-0.070 0.061-0.118 0-0.002-0-0.004-0-0.006v0zM28.238 19.705h-0.454v1.236h-0.306v-1.236h-0.448v-0.248h1.208v0.248zM29.305 20.298h-0.587v0.398h0.689v0.246h-0.994v-1.484h0.993v0.248h-0.687v0.354h0.587v0.239zM30.136 20.398h-0.243v0.543h-0.306v-1.484h0.551c0.175 0 0.311 0.039 0.406 0.117s0.143 0.189 0.143 0.331c0 0.101-0.022 0.186-0.066 0.254-0.049 0.071-0.117 0.127-0.196 0.16l-0.003 0.001 0.321 0.606v0.014h-0.328l-0.278-0.543zM29.893 20.151h0.247c0.077 0 0.136-0.019 0.178-0.058 0.039-0.038 0.063-0.092 0.063-0.151 0-0.004-0-0.008-0-0.012l0 0.001c0-0.070-0.020-0.125-0.060-0.165s-0.1-0.060-0.183-0.060h-0.246v0.445zM31.745 20.419v0.523h-0.306v-1.484h0.579c0.111 0 0.209 0.021 0.294 0.061s0.15 0.099 0.196 0.174c0.045 0.075 0.068 0.16 0.068 0.256 0 0.145-0.050 0.26-0.15 0.344s-0.237 0.126-0.413 0.126h-0.268zM31.745 20.171h0.273c0.081 0 0.143-0.019 0.184-0.057 0.043-0.038 0.064-0.093 0.064-0.163 0-0.003 0-0.007 0-0.011 0-0.064-0.024-0.122-0.064-0.166l0 0c-0.043-0.045-0.102-0.068-0.177-0.069h-0.28v0.466zM33.679 20.298h-0.587v0.398h0.689v0.246h-0.994v-1.484h0.993v0.248h-0.687v0.354h0.587v0.239zM35.098 19.705h-0.455v1.236h-0.306v-1.236h-0.448v-0.248h1.209v0.248zM36.166 20.298h-0.587v0.398h0.689v0.246h-0.994v-1.484h0.992v0.248h-0.687v0.354h0.587v0.239zM36.996 20.398h-0.243v0.543h-0.306v-1.484h0.551c0.175 0 0.31 0.039 0.406 0.117s0.143 0.189 0.143 0.331c0 0.101-0.022 0.186-0.066 0.254-0.049 0.071-0.117 0.127-0.196 0.16l-0.003 0.001 0.321 0.606v0.014h-0.328l-0.278-0.543zM36.753 20.151h0.247c0.077 0 0.136-0.019 0.178-0.058 0.042-0.040 0.063-0.094 0.063-0.162 0-0.070-0.020-0.125-0.060-0.165s-0.1-0.060-0.182-0.060h-0.246v0.445zM38.549 20.552c0-0.003 0-0.006 0-0.009 0-0.050-0.024-0.095-0.061-0.124l-0-0c-0.041-0.031-0.114-0.064-0.22-0.098-0.098-0.030-0.181-0.065-0.26-0.106l0.009 0.004c-0.169-0.091-0.253-0.214-0.253-0.368 0-0.080 0.022-0.152 0.067-0.214 0.046-0.063 0.111-0.112 0.195-0.148s0.18-0.053 0.285-0.053c0.106 0 0.2 0.019 0.283 0.058s0.147 0.092 0.192 0.162c0.046 0.070 0.070 0.15 0.070 0.238h-0.306c0-0.068-0.022-0.121-0.064-0.158-0.043-0.038-0.103-0.057-0.18-0.057-0.075 0-0.133 0.016-0.174 0.048-0.038 0.027-0.062 0.071-0.062 0.12 0 0.001 0 0.003 0 0.004v-0c0 0.048 0.024 0.089 0.072 0.121s0.121 0.063 0.215 0.091c0.174 0.052 0.301 0.117 0.38 0.195s0.119 0.174 0.119 0.289c0 0.128-0.049 0.23-0.146 0.303s-0.228 0.109-0.392 0.109c-0.114 0-0.218-0.021-0.312-0.063-0.088-0.038-0.161-0.096-0.214-0.17l-0.001-0.002c-0.046-0.069-0.074-0.153-0.074-0.244 0-0.003 0-0.006 0-0.010v0h0.307c0 0.163 0.098 0.246 0.294 0.246 0.073 0 0.129-0.015 0.17-0.044 0.037-0.027 0.061-0.070 0.061-0.119 0-0.002-0-0.004-0-0.006v0z"></path>
</svg>
