<!-- Generated by IcoMoon.io -->
<svg version="1.1" xmlns="http://www.w3.org/2000/svg" width="59" height="32" viewBox="0 0 59 32">
<title>Client-3</title>
<path fill="#afb1b8" d="M23.793 22.644c0.006 0 0.011 0.001 0.016 0.003s0.010 0.005 0.014 0.008l-0-0 0.076 0.072c-0.059 0.059-0.132 0.106-0.214 0.138-0.084 0.031-0.181 0.050-0.283 0.050-0.007 0-0.014-0-0.021-0l0.001 0c-0.097 0.002-0.194-0.014-0.284-0.046-0.083-0.030-0.155-0.074-0.215-0.13l0 0c-0.058-0.055-0.105-0.122-0.137-0.197l-0.001-0.004c-0.031-0.074-0.049-0.16-0.049-0.251 0-0.003 0-0.005 0-0.008v0c-0-0.004-0-0.009-0-0.013 0-0.177 0.077-0.336 0.199-0.446l0.001-0c0.065-0.057 0.142-0.101 0.227-0.131 0.094-0.031 0.193-0.047 0.293-0.046 0.005-0 0.012-0 0.018-0 0.091 0 0.178 0.015 0.259 0.044l-0.006-0.002c0.075 0.029 0.144 0.068 0.204 0.117l-0.064 0.077c-0.005 0.006-0.010 0.010-0.016 0.014l-0 0c-0.006 0.004-0.014 0.006-0.022 0.006-0.001 0-0.002-0-0.003-0h0c-0.010-0-0.020-0.003-0.028-0.008l0 0-0.034-0.021-0.048-0.026c-0.043-0.021-0.094-0.037-0.146-0.046l-0.003-0c-0.032-0.005-0.068-0.008-0.105-0.008-0.003 0-0.006 0-0.009 0h0c-0.002-0-0.004-0-0.007-0-0.073 0-0.143 0.013-0.208 0.036l0.004-0.001c-0.064 0.022-0.119 0.056-0.166 0.098l0-0c-0.047 0.045-0.083 0.097-0.107 0.155-0.025 0.058-0.039 0.127-0.039 0.198 0 0.002 0 0.004 0 0.007v-0c-0 0.002-0 0.005-0 0.008 0 0.072 0.014 0.141 0.040 0.204l-0.001-0.004c0.023 0.057 0.059 0.109 0.105 0.154 0.043 0.042 0.097 0.075 0.158 0.096 0.062 0.022 0.128 0.034 0.195 0.033 0.039 0 0.078-0.002 0.116-0.007 0.097-0.010 0.183-0.049 0.251-0.107l-0.001 0.001c0.010-0.008 0.022-0.013 0.036-0.013h0zM25.984 22.28c0 0.002 0 0.005 0 0.008 0 0.090-0.019 0.175-0.053 0.253l0.002-0.004c-0.034 0.079-0.082 0.145-0.142 0.198l-0.001 0c-0.063 0.056-0.138 0.1-0.22 0.129l-0.005 0.001c-0.086 0.029-0.185 0.046-0.288 0.046s-0.202-0.017-0.295-0.048l0.006 0.002c-0.086-0.030-0.16-0.075-0.223-0.131l0.001 0.001c-0.061-0.055-0.11-0.122-0.143-0.197l-0.001-0.004c-0.032-0.076-0.051-0.164-0.051-0.257s0.019-0.181 0.053-0.261l-0.002 0.004c0.032-0.075 0.081-0.144 0.144-0.202 0.063-0.055 0.139-0.098 0.223-0.126 0.086-0.030 0.185-0.047 0.288-0.047s0.202 0.017 0.295 0.049l-0.006-0.002c0.084 0.030 0.16 0.074 0.224 0.131s0.111 0.125 0.143 0.199c0.035 0.083 0.053 0.17 0.051 0.258zM25.785 22.28c0-0.003 0-0.007 0-0.011 0-0.070-0.013-0.137-0.038-0.199l0.001 0.004c-0.046-0.119-0.141-0.21-0.259-0.25l-0.003-0.001c-0.063-0.021-0.135-0.034-0.21-0.034s-0.147 0.012-0.214 0.035l0.005-0.001c-0.062 0.022-0.116 0.055-0.161 0.098l0-0c-0.044 0.042-0.079 0.093-0.102 0.151l-0.001 0.003c-0.023 0.061-0.036 0.132-0.036 0.206s0.013 0.145 0.038 0.21l-0.001-0.004c0.046 0.119 0.141 0.21 0.26 0.25l0.003 0.001c0.135 0.044 0.284 0.044 0.419 0 0.061-0.021 0.115-0.054 0.16-0.096 0.046-0.045 0.080-0.097 0.102-0.154 0.025-0.066 0.038-0.136 0.036-0.206zM27.479 22.496l0.020 0.046c0.008-0.016 0.014-0.031 0.022-0.046 0.008-0.018 0.017-0.033 0.026-0.047l-0.001 0.002 0.485-0.766c0.010-0.013 0.018-0.022 0.028-0.024s0.021-0.004 0.033-0.004c0.002 0 0.005 0 0.007 0h0.143v1.245h-0.17v-0.954c-0-0.006-0.001-0.014-0.001-0.022s0-0.015 0.001-0.023l-0 0.001-0.488 0.776c-0.007 0.012-0.016 0.022-0.028 0.028l-0 0c-0.012 0.007-0.026 0.010-0.041 0.010-0 0-0.001 0-0.001 0h-0.027c-0 0-0.001 0-0.001 0-0.015 0-0.029-0.004-0.041-0.011l0 0c-0.012-0.007-0.022-0.016-0.028-0.028l-0-0-0.502-0.781v0.999h-0.164v-1.242h0.143c0.002-0 0.004-0 0.007-0 0.012 0 0.023 0.002 0.034 0.005l-0.001-0c0.012 0.005 0.021 0.014 0.026 0.024l0.495 0.766c0.009 0.013 0.017 0.027 0.024 0.043l0.001 0.002zM29.302 22.434v0.466h-0.189v-1.243h0.423c0.080-0.001 0.159 0.008 0.236 0.027 0.061 0.015 0.118 0.042 0.167 0.078 0.040 0.032 0.073 0.073 0.094 0.12l0.001 0.002c0.023 0.051 0.033 0.105 0.032 0.159 0 0.002 0 0.005 0 0.008 0 0.112-0.054 0.212-0.137 0.275l-0.001 0.001c-0.049 0.037-0.106 0.065-0.168 0.082-0.064 0.018-0.137 0.029-0.213 0.029-0.005 0-0.011-0-0.016-0l-0.229-0.003zM29.302 22.3h0.23c0.050 0.001 0.099-0.006 0.147-0.019 0.041-0.012 0.076-0.030 0.107-0.054l-0.001 0.001c0.053-0.044 0.087-0.11 0.087-0.184 0-0.001 0-0.002-0-0.003v0c0-0.004 0-0.009 0-0.013 0-0.032-0.007-0.062-0.020-0.089l0.001 0.001c-0.016-0.034-0.038-0.062-0.066-0.085l-0-0c-0.063-0.043-0.141-0.068-0.225-0.068-0.011 0-0.021 0-0.031 0.001l0.001-0h-0.23v0.512zM31.851 22.902h-0.15c-0.001 0-0.002 0-0.003 0-0.014 0-0.028-0.004-0.039-0.012l0 0c-0.011-0.007-0.019-0.017-0.025-0.028l-0-0-0.129-0.301h-0.648l-0.134 0.301c-0.012 0.024-0.036 0.040-0.064 0.040-0.001 0-0.001 0-0.002-0h-0.15l0.569-1.245h0.197l0.577 1.245zM30.912 22.439h0.535l-0.225-0.507c-0.017-0.038-0.031-0.077-0.043-0.117l-0.022 0.065c-0.007 0.020-0.014 0.038-0.021 0.053l-0.224 0.506zM32.671 21.663c0.011 0.005 0.021 0.013 0.028 0.022l0.83 0.939v-0.967h0.17v1.245h-0.095c-0.001 0-0.001 0-0.002 0-0.013 0-0.026-0.003-0.037-0.008l0.001 0c-0.012-0.006-0.022-0.014-0.031-0.023l-0-0-0.829-0.938c0 0.006 0.001 0.014 0.001 0.021s-0 0.015-0.001 0.022l0-0.001v0.925h-0.17v-1.245h0.101c0.011 0 0.023 0.002 0.034 0.006zM35.097 22.407v0.494h-0.19v-0.494l-0.525-0.75h0.17c0.001-0 0.003-0 0.004-0 0.014 0 0.026 0.004 0.037 0.011l-0-0c0.010 0.008 0.019 0.018 0.026 0.028l0.328 0.484c0.013 0.021 0.025 0.040 0.034 0.058s0.017 0.035 0.024 0.053l0.024-0.054c0.009-0.019 0.020-0.038 0.032-0.057l0.323-0.487c0.007-0.010 0.015-0.019 0.024-0.026l0-0c0.010-0.008 0.023-0.012 0.037-0.012 0.001 0 0.002 0 0.004 0h0.171l-0.525 0.753zM27.385 19.567c0.083 0.009 0.166 0.016 0.25 0.023 1.28-0.497 2.362-1.311 3.112-2.34s1.134-2.227 1.105-3.445l-1.41-1.225c0.287 1.296 0.152 2.637-0.387 3.871s-1.464 2.313-2.67 3.117z"></path>
<path fill="#afb1b8" d="M26.881 19.51l0.038 0.007c1.288-0.801 2.271-1.919 2.819-3.21s0.64-2.695 0.261-4.031l-2.009-1.745c0.812 1.434 1.139 3.040 0.943 4.63s-0.908 3.098-2.052 4.35zM33.693 15.244c-0.341 1.338-1.17 2.544-2.363 3.441-0.326 0.248-0.694 0.481-1.081 0.68l-0.042 0.020c0.972-0.248 1.865-0.687 2.61-1.282s1.324-1.332 1.69-2.152l-0.815-0.707z"></path>
<path fill="#afb1b8" d="M33.374 15.047l-1.16-1.008c-0.022 1.149-0.398 2.272-1.089 3.251s-1.671 1.782-2.838 2.321h0.006c0.26 0 0.52-0.014 0.778-0.040 1.091-0.387 2.055-1.003 2.806-1.792s1.265-1.728 1.497-2.732zM27.049 9.795l-1.384-1.203c-1.237 0.415-2.301 1.145-3.052 2.095s-1.155 2.074-1.159 3.226c0.005 1.273 0.498 2.509 1.402 3.511s2.166 1.714 3.587 2.022c1.269-1.343 2.012-3.003 2.121-4.738s-0.422-3.456-1.515-4.911zM36.57 14.862c-0.005-1.51-0.698-2.958-1.927-4.026s-2.895-1.67-4.634-1.674c-0.004 0-0.010 0-0.015 0-0.835 0-1.638 0.139-2.386 0.395l0.052-0.015 8.471 7.361c0.276-0.6 0.437-1.301 0.438-2.040v-0z"></path>
</svg>
